<svg width="56" height="56" viewBox="0 0 56 56" fill="none" xmlns="http://www.w3.org/2000/svg">
<g id="person_outline_24px">
<path id="icon/social/person_outline_24px" fill-rule="evenodd" clip-rule="evenodd" d="M28 9.33334C22.8433 9.33334 18.6667 13.51 18.6667 18.6667C18.6667 23.8233 22.8433 28 28 28C33.1567 28 37.3333 23.8233 37.3333 18.6667C37.3333 13.51 33.1567 9.33334 28 9.33334ZM32.9 18.6667C32.9 15.96 30.7067 13.7667 28 13.7667C25.2933 13.7667 23.1 15.96 23.1 18.6667C23.1 21.3734 25.2933 23.5667 28 23.5667C30.7067 23.5667 32.9 21.3734 32.9 18.6667ZM42.2333 39.6667C42.2333 38.1734 34.93 34.7667 28 34.7667C21.07 34.7667 13.7667 38.1734 13.7667 39.6667V42.2334H42.2333V39.6667ZM9.33334 39.6667C9.33334 33.46 21.77 30.3333 28 30.3333C34.23 30.3333 46.6667 33.46 46.6667 39.6667V46.6667H9.33334V39.6667Z" fill="black" fill-opacity="0.54"/>
</g>
</svg>
