<svg width="56" height="56" viewBox="0 0 56 56" fill="none" xmlns="http://www.w3.org/2000/svg">
<path fill-rule="evenodd" clip-rule="evenodd" d="M46.6667 11.6667H39.27L35 7H21L16.73 11.6667H9.33334C6.76667 11.6667 4.66667 13.7667 4.66667 16.3333V44.3333C4.66667 46.9 6.76667 49 9.33334 49H46.6667C49.2333 49 51.3333 46.9 51.3333 44.3333V16.3333C51.3333 13.7667 49.2333 11.6667 46.6667 11.6667ZM28 23.3333L25.8067 28.14L21 30.3333C21 26.4833 24.15 23.3333 28 23.3333ZM35 30.3333C35 26.4833 31.85 23.3333 28 23.3333L30.1933 28.14L35 30.3333ZM28 37.3333L30.1933 32.5267L35 30.3333C35 34.1833 31.85 37.3333 28 37.3333ZM28 37.3333L25.8067 32.5267L21 30.3333C21 34.1833 24.15 37.3333 28 37.3333ZM9.33334 44.3333H46.6667V16.3333H37.2167L35.84 14.8167L32.9467 11.6667H23.0533L20.16 14.8167L18.7833 16.3333H9.33334V44.3333ZM28 18.6667C21.56 18.6667 16.3333 23.8933 16.3333 30.3333C16.3333 36.7733 21.56 42 28 42C34.44 42 39.6667 36.7733 39.6667 30.3333C39.6667 23.8933 34.44 18.6667 28 18.6667Z" fill="black" fill-opacity="0.54"/>
</svg>
