<svg id="Layer_1" data-name="Layer 1" xmlns="http://www.w3.org/2000/svg" viewBox="0 0 128 128"><defs><style>.cls-1{fill:#f7931e;}.cls-2{fill:#fbb03b;}.cls-3{fill:#f15a24;}.cls-4,.cls-5{fill:none;stroke-miterlimit:10;stroke-width:3px;}.cls-4{stroke:#f15a24;}.cls-5{stroke:#ed1c24;}</style></defs><path class="cls-1" d="M100.35,69.4a40.55,40.55,0,0,0,.81-8.08c0-.85,0-1.69-.08-2.52a38.47,38.47,0,0,0-.46-4.06S115,46.11,118.68,48c4.26,2.13,4.84,24.41.39,26.9s-18.45-5.4-18.45-5.4Z"/><path class="cls-2" d="M101.08,58.8c0,.83.08,1.67.08,2.52a40.55,40.55,0,0,1-.81,8.08,39.72,39.72,0,0,1-3.94,10.86c-11.87-3.49-25.92-10.93-38.23-10.8s-25,5.73-31.69,10.8l-.62.15a40.07,40.07,0,1,1,74.75-25.67A38.47,38.47,0,0,1,101.08,58.8ZM47.55,54.74a7.84,7.84,0,1,0-7.84,7.83A7.84,7.84,0,0,0,47.55,54.74Z"/><polygon class="cls-3" points="91.06 93.05 91.55 96.24 88.72 94.7 85.89 93.16 88.22 91.51 90.56 89.87 91.06 93.05"/><polygon class="cls-3" points="72.92 100.1 72.34 103.27 71.77 106.44 69.6 104.05 67.43 101.67 70.18 100.88 72.92 100.1"/><polygon class="cls-3" points="48.97 100.55 46.46 102.58 43.95 104.6 43.86 101.38 43.78 98.16 46.37 99.35 48.97 100.55"/><path class="cls-3" d="M39.71,51.83a2.91,2.91,0,1,1-2.9,2.91A2.91,2.91,0,0,1,39.71,51.83Z"/><polygon class="cls-3" points="30.76 89.16 32.68 91.28 29.59 92.17 26.49 93.05 27.66 90.05 28.84 87.05 30.76 89.16"/><path class="cls-4" d="M47.55,54.74a7.84,7.84,0,1,1-7.84-7.84A7.84,7.84,0,0,1,47.55,54.74Z"/><path class="cls-4" d="M42.62,54.74a2.91,2.91,0,1,1-2.91-2.91A2.9,2.9,0,0,1,42.62,54.74Z"/><path class="cls-4" d="M26.49,80.26c6.69-5.07,19.39-10.67,31.69-10.8s26.36,7.31,38.23,10.8"/><polygon class="cls-4" points="30.76 89.16 32.68 91.28 29.59 92.17 26.49 93.05 27.66 90.05 28.84 87.05 30.76 89.16"/><polygon class="cls-4" points="46.37 99.35 48.97 100.55 46.46 102.58 43.95 104.6 43.86 101.38 43.78 98.16 46.37 99.35"/><polygon class="cls-4" points="70.18 100.88 72.92 100.1 72.34 103.27 71.77 106.44 69.6 104.05 67.43 101.67 70.18 100.88"/><polygon class="cls-4" points="88.22 91.51 90.56 89.87 91.06 93.05 91.55 96.24 88.72 94.7 85.89 93.16 88.22 91.51"/><path class="cls-4" d="M100.62,54.74S115,46.11,118.68,48c4.26,2.13,4.84,24.41.39,26.9s-18.45-5.4-18.45-5.4"/><line class="cls-5" x1="101.08" y1="58.8" x2="109.78" y2="57.64"/><line class="cls-5" x1="101.16" y1="65.19" x2="109.78" y2="66.54"/><path class="cls-4" d="M101.08,58.8c0,.83.08,1.67.08,2.52a40.55,40.55,0,0,1-.81,8.08,40.08,40.08,0,0,1-74.48,11,40.07,40.07,0,1,1,74.75-25.67A38.47,38.47,0,0,1,101.08,58.8Z"/><path class="cls-4" d="M14.56,63.7a6.65,6.65,0,1,1,6.64-6.65"/><path class="cls-4" d="M22.06,70.34c0,3.68-3.83,6.65-7.5,6.65a6.65,6.65,0,1,1,0-13.29"/></svg>