<svg width="56" height="56" viewBox="0 0 56 56" fill="none" xmlns="http://www.w3.org/2000/svg">
<g id="business_center_24px">
<path id="icon/places/business_center_24px" fill-rule="evenodd" clip-rule="evenodd" d="M46.6667 16.3333H37.3333V11.6667L32.6667 7H23.3333L18.6667 11.6667V16.3333H9.33332C6.76666 16.3333 4.66666 18.4333 4.66666 21V32.6667C4.66666 34.4167 5.59999 35.8867 6.99999 36.7033V44.3333C6.99999 46.9233 9.07666 49 11.6667 49H44.3333C46.9233 49 49 46.9233 49 44.3333V36.68C50.3767 35.8633 51.3333 34.37 51.3333 32.6667V21C51.3333 18.4333 49.2333 16.3333 46.6667 16.3333ZM23.3333 11.6667H32.6667V16.3333H23.3333V11.6667ZM46.6666 21H9.33332V32.6667H21V25.6667H35V32.6667H46.6666V21ZM30.3333 35H25.6667V30.3333H30.3333V35ZM11.6667 44.3333H44.3333V37.3333H35V39.6667H21V37.3333H11.6667V44.3333Z" fill="black" fill-opacity="0.54"/>
</g>
</svg>
